<svg width="220" height="220" viewBox="0 0 220 220" fill="none" xmlns="http://www.w3.org/2000/svg">
<path d="M202.767 196.793C203.158 197.183 203.158 197.816 202.767 198.207C202.377 198.597 201.744 198.597 201.353 198.207L179.141 175.995C179.612 175.523 180.079 175.047 180.54 174.565L202.767 196.793ZM144.859 138.885C144.356 139.33 143.851 139.768 143.345 140.198L142.442 139.296L143.856 137.882L144.859 138.885ZM26.6083 22.0477C26.9987 21.6575 27.6319 21.6575 28.0223 22.0477L117.387 111.412C116.842 111.801 116.347 112.258 115.914 112.767L26.6083 23.4618C26.218 23.0713 26.2178 22.4382 26.6083 22.0477Z" fill="#FEE086"/>
</svg>
