<svg width="220" height="220" viewBox="0 0 220 220" fill="none" xmlns="http://www.w3.org/2000/svg">
<path d="M191.806 188.978C192.196 189.368 192.196 190.001 191.806 190.392C191.415 190.782 190.782 190.782 190.392 190.392L170.259 170.259C170.73 169.788 171.196 169.311 171.656 168.828L191.806 188.978ZM139.321 136.493C138.818 136.939 138.313 137.376 137.806 137.806L136.993 136.993L138.407 135.579L139.321 136.493ZM32 30.586C32.3905 30.1954 33.0236 30.1954 33.4141 30.586L114.94 112.112C114.397 112.504 113.905 112.962 113.474 113.474L32 32C31.6095 31.6095 31.6095 30.9765 32 30.586Z" fill="#FEE086"/>
</svg>
