<svg width="220" height="220" viewBox="0 0 220 220" fill="none" xmlns="http://www.w3.org/2000/svg">
<path d="M20.8143 129.19C20.9757 129.966 21.147 130.738 21.327 131.507L7.70692 145.128C7.31657 145.518 6.6834 145.518 6.29286 145.128C5.90236 144.737 5.9024 144.103 6.29286 143.713L20.8143 129.19ZM74.6073 78.2264L38.4667 114.367C38.2288 113.644 38.0071 112.922 37.8007 112.204L73.1923 76.8114L74.6073 78.2264ZM115.718 34.287C116.451 34.4867 117.181 34.6997 117.909 34.9247L81.6776 71.1551L80.2636 69.7411L115.718 34.287ZM146.713 3.29284C147.103 2.90242 147.737 2.90235 148.128 3.29284C148.518 3.68335 148.518 4.31655 148.128 4.70691L134.698 18.1356C133.924 17.9606 133.147 17.7953 132.365 17.6395L146.713 3.29284Z" fill="#FEE086"/>
</svg>
