<svg width="220" height="220" viewBox="0 0 220 220" fill="none" xmlns="http://www.w3.org/2000/svg">
<path d="M26.792 127.658C26.9523 128.434 27.1227 129.207 27.3037 129.975L15 142.279C14.6095 142.67 13.9765 142.67 13.5859 142.279C13.1955 141.889 13.1954 141.256 13.5859 140.865L26.792 127.658ZM75.6387 81.6386L42.8477 114.431C42.6083 113.707 42.3863 112.986 42.1816 112.268L74.2246 80.2245L75.6387 81.6386ZM112.732 41.7177C113.465 41.9161 114.196 42.1281 114.924 42.3544L82.71 74.5673L81.2959 73.1532L112.732 41.7177ZM140.94 13.5165C141.333 13.1966 141.913 13.22 142.279 13.5859C142.645 13.9517 142.668 14.531 142.349 14.9237L142.279 14.9999L130.148 27.1298C129.375 26.9538 128.597 26.7895 127.815 26.6347L140.865 13.5859L140.94 13.5165Z" fill="#FEE086"/>
</svg>
