<svg width="220" height="220" viewBox="0 0 220 220" fill="none" xmlns="http://www.w3.org/2000/svg">
<path d="M20.8143 129.19C20.9757 129.966 21.147 130.738 21.327 131.507L7.70692 145.128C7.31657 145.518 6.6834 145.518 6.29286 145.128C5.90236 144.737 5.9024 144.103 6.29286 143.713L20.8143 129.19ZM74.6073 78.2264L38.4667 114.367C38.2288 113.644 38.0071 112.922 37.8007 112.204L73.1923 76.8114L74.6073 78.2264ZM115.718 34.287C116.451 34.4867 117.181 34.6997 117.909 34.9247L81.6776 71.1551L80.2636 69.7411L115.718 34.287ZM146.713 3.29284C147.103 2.90242 147.737 2.90235 148.128 3.29284C148.518 3.68335 148.518 4.31655 148.128 4.70691L134.698 18.1356C133.924 17.9606 133.147 17.7953 132.365 17.6395L146.713 3.29284Z" fill="#FEE086"/>
<path d="M202.767 196.793C203.158 197.183 203.158 197.816 202.767 198.207C202.377 198.597 201.744 198.597 201.353 198.207L179.141 175.995C179.612 175.523 180.079 175.047 180.54 174.565L202.767 196.793ZM144.859 138.885C144.356 139.33 143.851 139.768 143.345 140.198L142.442 139.296L143.856 137.882L144.859 138.885ZM26.6083 22.0477C26.9987 21.6575 27.6319 21.6575 28.0223 22.0477L117.387 111.412C116.842 111.801 116.347 112.258 115.914 112.767L26.6083 23.4618C26.218 23.0713 26.2178 22.4382 26.6083 22.0477Z" fill="#FEE086"/>
<path d="M119.862 119.433C119.265 117.203 121.306 115.161 123.537 115.759L145.799 121.724C148.03 122.322 148.777 125.111 147.144 126.744L130.847 143.041C129.214 144.674 126.425 143.927 125.828 141.696L119.862 119.433Z" fill="#FEE086"/>
<path d="M112 22C160.601 22 200 61.3989 200 110C200 158.601 160.601 198 112 198C63.3989 198 24 158.601 24 110C24 93.2345 28.6889 77.5644 36.8262 64.2286C23.8456 90.0033 28.1151 122.243 49.6362 143.764C76.4848 170.612 120.015 170.612 146.864 143.764C173.712 116.915 173.712 73.3848 146.864 46.5362C126.64 26.3127 96.9518 21.3229 72.0573 31.5659C84.0444 25.4493 97.6194 22 112 22Z" fill="#FEE086"/>
</svg>
